<svg xmlns="http://www.w3.org/2000/svg" viewBox="0 0 1001.06 976.74"><defs><style>.cls-1{fill:#212121;}</style></defs><title>semAtivo 3</title><g id="Camada_2" data-name="Camada 2"><g id="Camada_1-2" data-name="Camada 1"><path class="cls-1" d="M1001.06,9.71a9.69,9.69,0,0,0-16.55-6.85L513.65,474.25,411.76,576.19h0L370.89,617a9.68,9.68,0,0,1-6.85,2.84h85.55c-8.64,0,10.8-10.44,16.91-16.55L672.13,397.78A9.63,9.63,0,0,0,675,391l.15-54A9.69,9.69,0,0,0,658.57,330L371.88,617a9.66,9.66,0,0,1-6.85,2.84H312a9.69,9.69,0,0,1-6.87-16.53l366.82-368a9.69,9.69,0,0,0,2.83-6.85l0-53.83a9.69,9.69,0,0,0-16.56-6.83L210.54,617a9.68,9.68,0,0,1-6.87,2.85H149.42a9.7,9.7,0,0,1-6.86-16.54L671.64,73a9.71,9.71,0,0,0,2.83-6.84l0-54A9.69,9.69,0,0,0,658,5.31L2.86,660.69a9.69,9.69,0,0,0,6.85,16.54H68.86l.13-.14H311.9l-.38.39,81.07-.26.12-.13H287.44a9.69,9.69,0,0,1,6.85,16.55L132.09,855.85c-.24.23-.49.46-.75.67A82.41,82.41,0,0,0,111,961.85a83,83,0,0,0,7.81,11.35c5.8,7.08,17.18,2.8,17.15-6.35v-.26c0-1.61.06-3.2.16-4.78a82,82,0,0,1,17.08-45.64,8.89,8.89,0,0,1,.86-1l13-13a9.89,9.89,0,0,1,1-.86,82,82,0,0,1,50.42-17.24h47.61l-.12.12,70.86-.12H991.08a9.69,9.69,0,0,0,9.7-9.69V837.58l-699.76,1H253.68A9.69,9.69,0,0,1,246.82,822L351.05,717.79v.45L543.3,525.84a9.66,9.66,0,0,1,6.85-2.84H766.52a9.69,9.69,0,0,1,6.84,16.55l-121,120.82a9.69,9.69,0,0,0,6.85,16.55l331.91.17a9.69,9.69,0,0,0,9.69-9.69l0-37.83a9.69,9.69,0,0,0-9.69-9.69l-193.74-.1a9.69,9.69,0,0,1-6.85-16.55l129.15-129h.19l78.33-78.49a9.71,9.71,0,0,0,2.83-6.85V335.07a9.69,9.69,0,0,0-16.56-6.84L889,424.14l0,0L850.07,463a9.71,9.71,0,0,1-6.85,2.83h-54a9.69,9.69,0,0,1-6.86-16.54L998.22,233.11a9.66,9.66,0,0,0,2.84-6.84V172.39a9.7,9.7,0,0,0-16.56-6.85L687.79,462.94a9.68,9.68,0,0,1-6.87,2.85H626.69a9.69,9.69,0,0,1-6.86-16.54l15.78-15.8,0,0,362.63-363a9.68,9.68,0,0,0,2.84-6.85Z"/></g></g></svg>