<svg id="_x33_0" enable-background="new 0 0 64 64" height="512" viewBox="0 0 64 64" width="512" xmlns="http://www.w3.org/2000/svg"><g><g><g><path d="m51.42 19c-1.62 0-3.07-.97-3.69-2.47-.01-.02-.02-.03-.02-.05-.63-1.5-.3-3.23.85-4.38l1.12-1.12-5.66-5.66-1.12 1.12c-1.15 1.15-2.88 1.48-4.38.85-.02 0-.03-.01-.05-.02-1.5-.62-2.47-2.07-2.47-3.69v-1.58h-4-4v1.58c0 1.62-.97 3.07-2.47 3.69-.02.01-.03.02-.05.02-1.5.63-3.23.3-4.38-.85l-1.12-1.12-5.66 5.66 1.12 1.12c1.15 1.15 1.48 2.88.85 4.38 0 .02-.01.03-.02.05-.62 1.5-2.07 2.47-3.69 2.47h-1.58v4 3l.643 1 4.163 6.473 1.213 1.887 2.981 4.64h-.7-3.3v11h32v-11h-4l3.21-5 5.147-8 .643-1v-3-4zm-19.42 13c-4.971 0-9-4.029-9-9s4.029-9 9-9 9 4.029 9 9-4.029 9-9 9z" fill="#ffc729"/></g><g><path d="m20 62h-6v-5.93c0-2.25.72-4.39 2-6.15.85-1.18 1.96-2.18 3.27-2.93 1.14-.65 2.4-1.09 3.71-1.27l3.02-.43 1 6.71 2.26-1.36.74 3.36-2 8z" fill="#ff826e"/></g><g><path d="m44 62h-8l-2-8 .74-3.36 2.26 1.36 1-6.71 3.02.43c1.31.18 2.57.62 3.71 1.27 1.31.75 2.42 1.75 3.27 2.93.21.29.41.59.59.9.91 1.57 1.41 3.38 1.41 5.25v5.93z" fill="#ff826e"/></g><g><path d="m34 54 2 8h-8l2-8z" fill="#e6e9ed"/></g><g><path d="m34.74 50.64-.74 3.36h-4l-.74-3.36 2.74-1.64z" fill="#ccd1d9"/></g><g><path d="m38 45.29-1 6.71-2.26-1.36-2.74-1.64 4-4z" fill="#fc6e51"/></g><g><path d="m32 49-2.74 1.64-2.26 1.36-1-6.71 2-.29z" fill="#fc6e51"/></g><g><path d="m17.02 35.36 2.98 4.64h-4v9.92c-1.28 1.76-2 3.9-2 6.15v5.93h-8v-22h-4l9-14z" fill="#b4dd7f"/></g><g><path d="m47.21 35 5.79-9 9 14h-4v22h-8v-5.93c0-1.87-.5-3.68-1.41-5.25-.18-.31-.38-.61-.59-.9v-9.92h-4z" fill="#b4dd7f"/></g><g><path d="m45 23c0 2.64-.79 5.1-2.14 7.15.09-.51.14-1.03.14-1.55 0-2.1-.75-4.02-2-5.51v-.01c0-.03 0-.05 0-.08 0-4.97-4.03-9-9-9s-9 4.03-9 9v.08.01c-1.25 1.49-2 3.41-2 5.51 0 .52.05 1.04.14 1.55-1.35-2.05-2.14-4.51-2.14-7.15 0-7.18 5.82-13 13-13s13 5.82 13 13z" fill="#fcd770"/></g><g><path d="m28.93 42.29 3.07.71c1.11 0 2.15-.25 3.07-.71l.93 2.71-4 4-4-4z" fill="#f0d0b4"/></g><g><path d="m25 36v-4-.91c0-1.89 1.07-3.63 2.76-4.47l.59-.3c.94 1.05 2.3 1.68 3.74 1.68h1.08.01c.4 1.17 1.51 2 2.82 2 1.66 0 3-1.34 3-3v5 4c0 .68-.1 1.33-.28 1.95-.55 1.91-1.89 3.48-3.65 4.34-.92.46-1.96.71-3.07.71l-3.07-.71c-.7-.34-1.33-.79-1.88-1.34-.83-.83-1.44-1.85-1.77-3-.18-.62-.28-1.27-.28-1.95z" fill="#f0d0b4"/></g><g><path d="m40 38h-1.07l-.21-.05c.18-.62.28-1.27.28-1.95v-4h1c.8 0 1.53.32 2.06.82.58.55.94 1.32.94 2.18 0 .83-.34 1.58-.88 2.12s-1.29.88-2.12.88z" fill="#f0d0b4"/></g><g><path d="m25 36c0 .68.1 1.33.28 1.95l-.21.05h-1.07c-.83 0-1.58-.34-2.12-.88-.46-.46-.78-1.08-.85-1.76-.02-.12-.03-.24-.03-.36 0-.86.36-1.63.94-2.18.53-.5 1.26-.82 2.06-.82h1z" fill="#f0d0b4"/></g><g><path d="m39 27c0 1.66-1.34 3-3 3-1.31 0-2.42-.83-2.82-2h-.01-1.08c-1.44 0-2.8-.63-3.74-1.68l-.59.3c-1.69.84-2.76 2.58-2.76 4.47v.91h-1c-.8 0-1.53.32-2.06.82l-.5-1.5c-.13-.38-.23-.77-.3-1.17-.09-.51-.14-1.03-.14-1.55 0-2.1.75-4.02 2-5.51v-.01c1.58-1.88 3.95-3.08 6.6-3.08h4.8c2.38 0 4.52.96 6.08 2.52.18.18.35.37.52.56v.01c1.25 1.49 2 3.41 2 5.51 0 .52-.05 1.04-.14 1.55-.07.4-.17.79-.3 1.17l-.5 1.5c-.53-.5-1.26-.82-2.06-.82h-1z" fill="#656d78"/></g></g><g><circle cx="29" cy="34" r="1"/><circle cx="35" cy="34" r="1"/><path d="m29.895 36.553-1.789.895.105.211c.722 1.444 2.174 2.341 3.789 2.341s3.067-.897 3.789-2.342l.105-.211-1.789-.895-.105.212c-.381.762-1.147 1.236-2 1.236s-1.619-.474-2-1.236z"/><circle cx="32" cy="6" r="1"/><path d="m19.979 11.979c.256 0 .512-.098.707-.293.391-.391.391-1.024 0-1.414-.195-.195-.451-.293-.707-.293s-.512.098-.707.293c-.391.391-.391 1.024 0 1.414.195.196.451.293.707.293z"/><circle cx="15" cy="23" r="1"/><circle cx="49" cy="23" r="1"/><path d="m44.021 11.979c.256 0 .512-.098.707-.293.391-.391.391-1.024 0-1.414-.195-.195-.451-.293-.707-.293s-.512.098-.707.293c-.391.391-.391 1.024 0 1.414.195.196.451.293.707.293z"/><path d="m54 25.706v-7.706h-2.577c-1.218 0-2.307-.728-2.795-1.904-.475-1.135-.222-2.427.642-3.292l1.825-1.823-7.075-7.075-1.824 1.823c-.865.865-2.155 1.118-3.344.621-1.125-.465-1.852-1.554-1.852-2.773v-2.577h-10v2.577c0 1.219-.727 2.308-1.905 2.795-1.134.475-2.427.223-3.292-.643l-1.823-1.823-7.075 7.074 1.825 1.823c.864.865 1.117 2.157.621 3.344-.467 1.125-1.556 1.853-2.774 1.853h-2.577v7.706l-9.832 15.294h4.832v22h54v-22h4.832zm-41.423-5.706c2.03 0 3.844-1.212 4.641-3.133.788-1.887.367-4.037-1.074-5.478l-.41-.409 4.246-4.246.41.409c1.439 1.44 3.589 1.861 5.522 1.055 1.876-.776 3.088-2.59 3.088-4.621v-.577h6v.577c0 2.031 1.212 3.845 3.133 4.641 1.887.786 4.037.366 5.477-1.074l.41-.409 4.246 4.246-.41.409c-1.44 1.44-1.862 3.591-1.054 5.523.777 1.875 2.591 3.087 4.621 3.087h.577v5.706l-9.832 15.294h4.832v6.404c-.549-.474-1.13-.915-1.771-1.282-1.259-.72-2.626-1.188-4.063-1.395l-4.418-.631-.463-1.352c1.395-.889 2.496-2.195 3.126-3.744h.589c2.206 0 4-1.794 4-4 0-.901-.31-1.724-.815-2.393l.322-.966c.121-.364.213-.735.29-1.109 1.439-2.25 2.203-4.848 2.203-7.532 0-7.72-6.28-14-14-14s-14 6.28-14 14c0 2.684.764 5.282 2.203 7.531.077.374.168.745.29 1.109l.322.966c-.505.67-.815 1.493-.815 2.394 0 2.206 1.794 4 4 4h.589c.63 1.55 1.731 2.855 3.126 3.744l-.463 1.352-4.418.631c-1.437.206-2.804.675-4.063 1.395-.642.367-1.222.809-1.771 1.282v-6.404h4.832l-9.832-15.294v-5.706zm30.423 35v6h-6.219l-1.754-7.015.388-1.77 2.353 1.412 1.075-7.21 2.04.292c1.186.169 2.314.557 3.354 1.15 2.938 1.678 4.763 4.824 4.763 8.207v4.934h-4v-6zm-24 0v6h-4v-4.934c0-3.384 1.825-6.529 4.764-8.208 1.04-.594 2.167-.981 3.354-1.15l2.04-.292 1.075 7.21 2.353-1.412.388 1.77-1.755 7.016h-6.219v-6zm1-32c0-6.617 5.383-12 12-12s12 5.383 12 12c0 1.01-.133 2.003-.377 2.965-.339-1.184-.9-2.272-1.636-3.223-.138-5.393-4.56-9.742-9.987-9.742s-9.849 4.349-9.987 9.743c-.735.95-1.297 2.038-1.636 3.223-.244-.963-.377-1.956-.377-2.966zm20 13v-3c1.103 0 2 .897 2 2s-.897 2-2 2h-.069c.041-.328.069-.661.069-1zm-.404-15.459c-1.5-.971-3.283-1.541-5.2-1.541h-4.792c-1.924 0-3.714.574-5.217 1.552 1.036-3.217 4.056-5.552 7.613-5.552 3.539 0 6.544 2.313 7.596 5.541zm-15.596 12.459v3c0 .339.028.672.069 1h-.069c-1.103 0-2-.897-2-2s.897-2 2-2zm.006-2h-.006c-.535 0-1.045.11-1.512.301l-.098-.293c-.259-.777-.39-1.585-.39-2.404 0-4.193 3.411-7.604 7.604-7.604h4.792c4.193 0 7.604 3.411 7.604 7.604 0 .819-.131 1.628-.39 2.404l-.098.293c-.467-.191-.977-.301-1.512-.301v-4c0-2.206-1.794-4-4-4v2c1.103 0 2 .897 2 2s-.897 2-2 2-2-.897-2-2v-2h-2v1.994c-1.488-.033-2.819-.868-3.487-2.205l-.618-1.236-1.789.895.618 1.236c.051.101.115.192.171.289-1.767 1.068-2.858 2.942-2.889 5.027zm1.994.09c0-1.509.831-2.863 2.169-3.552 1.068.926 2.444 1.462 3.921 1.462h.466c.694 1.19 1.97 2 3.444 2 .732 0 1.409-.212 2-.556v5.556c0 3.309-2.691 6-6 6s-6-2.691-6-6zm7.196 21.91h-2.392l-.41-1.87 1.606-.964 1.606.964zm.417-4.199 2.741-2.741.509.073-.631 4.24zm-1.613-4.801c.861 0 1.688-.14 2.466-.393l.386 1.127-2.852 2.852-2.852-2.852.386-1.127c.778.253 1.605.393 2.466.393zm-4.353 2.061 2.741 2.741-2.619 1.572-.631-4.24zm3.134 8.939h2.439l1.5 6h-5.439zm-26.949-16 7.168-11.15 7.168 11.15h-3.168v10.65c-1.267 1.869-2 4.09-2 6.417v4.933h-6v-22zm53.168 0v22h-6v-4.934c0-2.327-.733-4.548-2-6.417v-10.649h-3.168l7.168-11.15 7.168 11.15z"/></g></g></svg>