<svg xmlns="http://www.w3.org/2000/svg" viewBox="0 0 699.3 967.58"><defs><style>.cls-1{fill:#fff;}</style></defs><title>semlogo_white_CEE</title><g id="Camada_2" data-name="Camada 2"><g id="Camada_1-2" data-name="Camada 1"><path class="cls-1" d="M132.59,967.58q-52.65,0-82.77-24.24T19.71,874.4A161.25,161.25,0,0,1,23.11,843q13.26-61.38,51.53-94.14T186,716.05q22.74,0,39.59,3.41a186.19,186.19,0,0,1,32,9.47l-13.26,62.13q-29.18-14.38-66.29-14.4-34.47,0-54.55,15.72T95.85,843q-1.53,6.81-2.27,12.69a86.52,86.52,0,0,0-.76,11.17q0,20.83,13.44,30.5T150.77,907a194.15,194.15,0,0,0,36.18-3.4A209.33,209.33,0,0,0,223.51,893l-13.26,62.5a255.63,255.63,0,0,1-36.18,8.9A245.62,245.62,0,0,1,132.59,967.58Z"/><path class="cls-1" d="M235.25,963.8l51.52-244H471.63l-11.37,54.55H346.62l-8.71,39.78h99.62l-11.74,55.3H326.16l-8.33,39.78H431.47L420.11,963.8Z"/><path class="cls-1" d="M443.21,963.8l51.52-244H679.59l-11.36,54.55H554.58l-8.71,39.78H645.5l-11.75,55.3H534.13l-8.34,39.78H639.43L628.07,963.8Z"/><path class="cls-1" d="M699.3,6.78A6.78,6.78,0,0,0,687.73,2L358.81,331.29,287.64,402.5h0L259.09,431a6.77,6.77,0,0,1-4.79,2h59.76c-6,0,7.55-7.29,11.82-11.56L469.52,277.87a6.77,6.77,0,0,0,2-4.77l.1-37.75a6.77,6.77,0,0,0-11.56-4.8L259.78,431a6.77,6.77,0,0,1-4.79,2H217.93a6.77,6.77,0,0,1-4.8-11.55L469.38,164.4a6.79,6.79,0,0,0,2-4.78l0-37.6a6.77,6.77,0,0,0-11.57-4.77L147.07,431a6.76,6.76,0,0,1-4.8,2H104.38a6.77,6.77,0,0,1-4.79-11.55L469.18,51a6.74,6.74,0,0,0,2-4.77l0-37.7a6.77,6.77,0,0,0-11.56-4.79L2,461.53a6.76,6.76,0,0,0,4.78,11.55H48.1l.1-.09H217.88l-.27.26,56.64-.18.08-.08H200.79a6.77,6.77,0,0,1,4.79,11.56L92.27,597.86c-.17.16-.34.32-.52.46a58.32,58.32,0,0,0-9.43,9.48,57.44,57.44,0,0,0,.7,72,6.77,6.77,0,0,0,12-4.43v-.18c0-1.12,0-2.24.11-3.34A57.3,57.3,0,0,1,107,640a7.73,7.73,0,0,1,.6-.67l9.06-9.06a6.48,6.48,0,0,1,.68-.6,57.33,57.33,0,0,1,35.22-12h33.26l-.08.08,49.49-.08H692.33a6.78,6.78,0,0,0,6.77-6.78V585.09l-488.82.69H177.21a6.77,6.77,0,0,1-4.79-11.55l72.81-72.81v.31l134.29-134.4a6.78,6.78,0,0,1,4.79-2H535.45a6.77,6.77,0,0,1,4.79,11.56l-84.52,84.4a6.77,6.77,0,0,0,4.78,11.56l231.86.11a6.75,6.75,0,0,0,6.77-6.76V439.79a6.75,6.75,0,0,0-6.76-6.77L557,433a6.77,6.77,0,0,1-4.78-11.56l90.22-90.09h.13l54.72-54.83a6.81,6.81,0,0,0,2-4.79V234.07a6.77,6.77,0,0,0-11.57-4.78l-66.72,67,0,0L593.82,323.4a6.76,6.76,0,0,1-4.78,2H551.33a6.77,6.77,0,0,1-4.79-11.55l150.78-151a6.8,6.8,0,0,0,2-4.78V120.42a6.78,6.78,0,0,0-11.57-4.78L480.46,323.39a6.76,6.76,0,0,1-4.8,2H437.78A6.77,6.77,0,0,1,433,313.82l11-11h0L697.31,49.2a6.77,6.77,0,0,0,2-4.79Z"/></g></g></svg>