<svg xmlns="http://www.w3.org/2000/svg" viewBox="0 0 968.14 388.56"><defs><style>.cls-1{fill:#fff;}</style></defs><title>semAtivo 1</title><g id="Camada_2" data-name="Camada 2"><g id="Camada_1-2" data-name="Camada 1"><path class="cls-1" d="M470.94,68.11q-13.63,0-21.44-6.28T441.7,44a41.7,41.7,0,0,1,.88-8.15q3.44-15.9,13.35-24.39t28.85-8.49A52.17,52.17,0,0,1,495,3.83a48.57,48.57,0,0,1,8.29,2.45l-3.43,16.1a38.29,38.29,0,0,0-17.18-3.73q-8.93,0-14.13,4.07t-7.17,13.1c-.26,1.18-.45,2.28-.58,3.29a21.22,21.22,0,0,0-.2,2.9c0,3.59,1.16,6.23,3.48,7.9s6.17,2.5,11.53,2.5a51,51,0,0,0,9.38-.88,54.44,54.44,0,0,0,9.47-2.75L491.06,65a67.15,67.15,0,0,1-9.37,2.31A64.41,64.41,0,0,1,470.94,68.11Z"/><path class="cls-1" d="M522.37,68.11q-10.69,0-16.68-4.56t-6-13.4c0-1,.05-2,.15-3a22.81,22.81,0,0,1,.54-3.24q2.55-11.77,10.3-18t22-6.23q11.37,0,17.17,4.81t5.79,13.25c0,1,0,2-.15,3a21.49,21.49,0,0,1-.54,3.19q-2.44,11.88-10.5,18.06T522.37,68.11Zm2.85-13.44a9.69,9.69,0,0,0,7.11-2.56c1.74-1.7,3-4.44,3.78-8.24a22.22,22.22,0,0,0,.59-4.71,5.94,5.94,0,0,0-1.62-4.61c-1.08-1-2.83-1.48-5.25-1.48a9.14,9.14,0,0,0-6.92,2.61q-2.5,2.59-3.68,8.19a26.39,26.39,0,0,0-.59,5,5.69,5.69,0,0,0,1.52,4.41Q521.67,54.67,525.22,54.67Z"/><path class="cls-1" d="M557,67.13l9.82-46.52H583.9l-.29,3.73A36.94,36.94,0,0,1,591.12,21a27.67,27.67,0,0,1,8.59-1.32,14.92,14.92,0,0,1,6.87,1.27,7.17,7.17,0,0,1,3.33,3.73A36.25,36.25,0,0,1,617.76,21a31.25,31.25,0,0,1,9.62-1.37q6.68,0,9.77,2.94T640.24,31a27.23,27.23,0,0,1-.15,2.75,24.94,24.94,0,0,1-.54,3.14l-6.38,30.23H615l5.89-28.07a11.59,11.59,0,0,0,.29-2.26c0-2.35-1.51-3.53-4.51-3.53A10,10,0,0,0,609.81,36a17.34,17.34,0,0,1-.34,2.4c-.16.76-.34,1.59-.54,2.51l-5.49,26.2H586.36l6-28.36a12,12,0,0,0,.29-2.36q0-3.13-3.83-3.14a8.53,8.53,0,0,0-3.82,1,19.25,19.25,0,0,0-3.64,2.36l-6.47,30.52Z"/><path class="cls-1" d="M646.33,67.13l7-33.07h-6.77l4.42-13.45h23.65l-9.81,46.52ZM656,14.43l2.85-13.35h19.92L676,14.43Z"/><path class="cls-1" d="M691.57,68.11a68.68,68.68,0,0,1-11-.83,31.72,31.72,0,0,1-7.81-2.11l2.75-13.25a30,30,0,0,0,7.71,2.45,42.32,42.32,0,0,0,7.9.89c2.35,0,4.15-.07,5.4-.2a2.11,2.11,0,0,0,2.15-1.67c.27-1.11-.62-2-2.64-2.55s-4.59-1.44-7.66-2.55a22.58,22.58,0,0,1-7.46-4.47,8.62,8.62,0,0,1-2.55-6.43,11.93,11.93,0,0,1,.1-1.57,16.79,16.79,0,0,1,.29-1.67,16.11,16.11,0,0,1,7.51-10.74q6-3.78,18.3-3.78a62.69,62.69,0,0,1,9.18.69,40.86,40.86,0,0,1,7.21,1.57l-2.74,13a23,23,0,0,0-6-1.86,35.11,35.11,0,0,0-6.18-.59,50.26,50.26,0,0,0-5.65.29c-1.67.2-2.63.75-2.89,1.67s.59,1.8,2.35,2.26,4.13,1.17,7.07,2.16q6.07,1.86,8.59,4.46a8.8,8.8,0,0,1,2.5,6.33,10.57,10.57,0,0,1-.15,1.77c-.1.59-.21,1.24-.34,2a17,17,0,0,1-7.56,10.95Q703.94,68.11,691.57,68.11Z"/><path class="cls-1" d="M736.91,68.11a68.68,68.68,0,0,1-11-.83,31.49,31.49,0,0,1-7.8-2.11l2.75-13.25a30,30,0,0,0,7.7,2.45,42.4,42.4,0,0,0,7.9.89c2.36,0,4.16-.07,5.4-.2A2.13,2.13,0,0,0,744,53.39c.26-1.11-.62-2-2.65-2.55s-4.58-1.44-7.66-2.55a22.42,22.42,0,0,1-7.45-4.47,8.59,8.59,0,0,1-2.56-6.43,13.94,13.94,0,0,1,.1-1.57,17,17,0,0,1,.3-1.67,16.13,16.13,0,0,1,7.5-10.74q6-3.78,18.31-3.78a62.69,62.69,0,0,1,9.18.69,41.07,41.07,0,0,1,7.21,1.57l-2.75,13a22.86,22.86,0,0,0-6-1.86,34.94,34.94,0,0,0-6.18-.59,50.2,50.2,0,0,0-5.64.29c-1.67.2-2.64.75-2.9,1.67s.59,1.8,2.36,2.26,4.12,1.17,7.06,2.16q6.09,1.86,8.59,4.46a8.8,8.8,0,0,1,2.5,6.33,10.56,10.56,0,0,1-.14,1.77c-.1.59-.22,1.24-.35,2a17,17,0,0,1-7.55,10.95Q749.27,68.11,736.91,68.11Z"/><path class="cls-1" d="M784.81,68.11q-8.14,0-12.91-3.68T767.14,52.7a31.32,31.32,0,0,1,.2-3.43c.13-1.18.32-2.42.59-3.73a37.68,37.68,0,0,1,5.89-13.79,29,29,0,0,1,9.91-9,25.76,25.76,0,0,1,12.46-3.14,20.24,20.24,0,0,1,6.48.93A12.68,12.68,0,0,1,807,22.87l.49-2.26h18.45l-9.81,46.52h-16l-.2-3.63a29.28,29.28,0,0,1-6.87,3.39A25.91,25.91,0,0,1,784.81,68.11Zm26.3-53a17.6,17.6,0,0,1-6.08-1q-2.85-1-5.45-2.06a14.58,14.58,0,0,0-5.35-1,15.29,15.29,0,0,0-5.64,1,17.65,17.65,0,0,0-4.76,2.8l2.45-11.58A13.76,13.76,0,0,1,790.7.93,17.3,17.3,0,0,1,796.29,0a16.4,16.4,0,0,1,6,1l5.25,2.06a15.08,15.08,0,0,0,5.64,1A13.4,13.4,0,0,0,818.81,3a11.49,11.49,0,0,0,4-2.79l-2.46,11.68a10.75,10.75,0,0,1-3.82,2.25A14.78,14.78,0,0,1,811.11,15.11ZM793,54.76a12.45,12.45,0,0,0,4.22-.73,10.93,10.93,0,0,0,3.63-2.11l3.54-16.49A8,8,0,0,0,798.06,33q-8.55,0-11.29,12.66a18.6,18.6,0,0,0-.59,4.22c0,1.83.52,3.11,1.57,3.82S790.53,54.76,793,54.76Z"/><path class="cls-1" d="M849.78,68.11q-10.69,0-16.69-4.56t-6-13.4c0-1,0-2,.14-3a24.33,24.33,0,0,1,.54-3.24q2.55-11.77,10.31-18t22-6.23q11.38,0,17.18,4.81t5.79,13.25c0,1,0,2-.15,3a24.45,24.45,0,0,1-.54,3.19q-2.46,11.88-10.5,18.06T849.78,68.11Zm2.84-13.44a9.71,9.71,0,0,0,7.12-2.56q2.6-2.55,3.78-8.24a22.22,22.22,0,0,0,.59-4.71,5.94,5.94,0,0,0-1.62-4.61c-1.08-1-2.83-1.48-5.25-1.48a9.13,9.13,0,0,0-6.92,2.61q-2.51,2.59-3.68,8.19a25.59,25.59,0,0,0-.59,5c0,2,.5,3.5,1.52,4.41S850.27,54.67,852.62,54.67Z"/><path class="cls-1" d="M457.4,158.08a19.24,19.24,0,0,1-12.42-4q-5-4-5-12.61a32.56,32.56,0,0,1,.19-3.48q.19-1.81.6-3.78,2.73-12.76,9.81-18.7t17.66-5.94a28.4,28.4,0,0,1,6.29.69,18.13,18.13,0,0,1,5.2,2L484.29,91h18.45l-14,66.15h-16l-.19-3.64a29.35,29.35,0,0,1-6.88,3.39A25.62,25.62,0,0,1,457.4,158.08Zm8.15-13.35a12.47,12.47,0,0,0,7.85-2.85l3.53-16.48q-2.16-2.46-6.77-2.46a8.78,8.78,0,0,0-6.68,2.7q-2.55,2.7-3.82,8.69a23.18,23.18,0,0,0-.59,4.71q0,3.14,1.62,4.41A7.77,7.77,0,0,0,465.55,144.73Z"/><path class="cls-1" d="M521.88,158.08q-10.41,0-16.74-4.57T498.82,140c0-.92,0-1.9.14-3a21.72,21.72,0,0,1,.54-3.14q2.36-11.09,9.72-17.71t20.41-6.63q9.61,0,14.92,4.67a15.49,15.49,0,0,1,5.3,12.22c0,.72,0,1.47-.1,2.25a16.06,16.06,0,0,1-.39,2.46l-1.77,8.14H515.3a5.79,5.79,0,0,0,3,5.25q2.84,1.62,10.7,1.62a47.11,47.11,0,0,0,8.19-.73,43.78,43.78,0,0,0,6.92-1.72l-2.36,11.09Q534.25,158.08,521.88,158.08Zm-4.42-28.76h16.39l.3-1.67c.06-.32.11-.62.14-.88a5.16,5.16,0,0,0,.05-.79,4.2,4.2,0,0,0-1.47-3.33q-1.47-1.28-5.1-1.28-4.82,0-7.17,2A10.18,10.18,0,0,0,517.46,129.32Z"/><path class="cls-1" d="M571,157.1,584.3,93.89h47.89L629.25,108H599.8l-2.25,10.31h25.81l-3.05,14.33H594.5L592.34,143h29.45l-2.95,14.14Z"/><path class="cls-1" d="M642.69,158.08a67.51,67.51,0,0,1-11-.84,31.06,31.06,0,0,1-7.8-2.11l2.75-13.25a29.93,29.93,0,0,0,7.7,2.46,42.39,42.39,0,0,0,7.9.88,52.42,52.42,0,0,0,5.4-.2,2.13,2.13,0,0,0,2.16-1.66q.39-1.68-2.65-2.56t-7.66-2.55a22.52,22.52,0,0,1-7.45-4.46,8.59,8.59,0,0,1-2.56-6.43,13.79,13.79,0,0,1,.1-1.57,17,17,0,0,1,.3-1.67,16.11,16.11,0,0,1,7.51-10.75q6-3.77,18.3-3.78a62.69,62.69,0,0,1,9.18.69,42,42,0,0,1,7.21,1.57l-2.75,13a22.86,22.86,0,0,0-6-1.87,35.9,35.9,0,0,0-6.18-.59,47.79,47.79,0,0,0-5.64.3c-1.67.19-2.64.75-2.9,1.67s.59,1.8,2.36,2.25,4.12,1.18,7.06,2.16c4.06,1.25,6.92,2.73,8.59,4.47a8.77,8.77,0,0,1,2.5,6.33,10.36,10.36,0,0,1-.14,1.76c-.1.59-.22,1.25-.35,2a16.91,16.91,0,0,1-7.55,10.94Q655.05,158.08,642.69,158.08Z"/><path class="cls-1" d="M690.78,158.08q-7.17,0-10.89-3.34t-3.73-9.23a22.2,22.2,0,0,1,.59-4.9l3.53-16.39h-6.09L677,110.58h6.09l2.06-9.52,19.33-4.42-2.94,13.94h10.7l-3.54,13.64h-10l-3.24,15a10.23,10.23,0,0,0-.29,2.16,2.59,2.59,0,0,0,1.32,2.6,8.91,8.91,0,0,0,3.78.64,21.2,21.2,0,0,0,6.09-1l-2.65,12.27A35.85,35.85,0,0,1,690.78,158.08Z"/><path class="cls-1" d="M728,158.08q-8.15,0-12.91-3.68t-4.76-11.73a31.5,31.5,0,0,1,.2-3.44c.13-1.17.32-2.42.59-3.73A37.76,37.76,0,0,1,717,121.71a29.06,29.06,0,0,1,9.91-9,25.76,25.76,0,0,1,12.46-3.14,20.23,20.23,0,0,1,6.48.94,12.85,12.85,0,0,1,4.32,2.3l.49-2.25H769.1l-9.81,46.52h-16l-.2-3.64a29.28,29.28,0,0,1-6.87,3.39A25.62,25.62,0,0,1,728,158.08Zm8.14-13.35a12.46,12.46,0,0,0,4.22-.74,10.93,10.93,0,0,0,3.63-2.11l3.54-16.48a7.92,7.92,0,0,0-6.28-2.46q-8.55,0-11.29,12.66a18.67,18.67,0,0,0-.59,4.22c0,1.84.52,3.11,1.57,3.83S733.7,144.73,736.12,144.73Zm0-38.87,13-20.21h14.33l-13.74,20.21Z"/><path class="cls-1" d="M784,174.37c-1,0-2.45-.05-4.22-.15s-3.48-.23-5.15-.39-2.93-.31-3.78-.44l2.84-13.15a41.67,41.67,0,0,0,4.91.88,42.5,42.5,0,0,0,5.3.39q8.15,0,12.17-1.42t4.61-4.56l.2-1.08A31.37,31.37,0,0,1,795,156.7a24.5,24.5,0,0,1-6.72,1c-5.24,0-9.55-1.38-13-4.17s-5.11-6.95-5.11-12.51q0-1.38.15-2.94a24.33,24.33,0,0,1,.54-3.24q2.55-12.37,9.47-18.8t18.3-6.43a19,19,0,0,1,7.32,1.33,14.51,14.51,0,0,1,5,3.29l1.67-3.63h16l-8.84,41.8a28.6,28.6,0,0,1-5.3,11.88q-3.82,4.91-11.19,7.51T784,174.37Zm11.78-30a12.18,12.18,0,0,0,7.75-2.46L807,125.79a8.41,8.41,0,0,0-2.66-2.11,8.07,8.07,0,0,0-3.63-.74q-4.91,0-7.26,2.8t-3.73,9a23.18,23.18,0,0,0-.59,4.71c0,1.9.53,3.19,1.57,3.88A9.7,9.7,0,0,0,795.8,144.34Z"/><path class="cls-1" d="M832.4,157.1l7-33.08H832.6L837,110.58h23.65l-9.82,46.52Zm9.72-52.71L845,91h19.92L862,104.39Z"/><path class="cls-1" d="M884.61,158.08q-10.7,0-16.68-4.57t-6-13.39c0-1,0-2,.15-3.05a24.46,24.46,0,0,1,.54-3.23q2.55-11.79,10.3-18t22-6.24q11.39,0,17.17,4.81t5.8,13.25q0,1.47-.15,3a25,25,0,0,1-.54,3.19q-2.46,11.86-10.5,18T884.61,158.08Zm2.85-13.45a9.75,9.75,0,0,0,7.12-2.55q2.59-2.55,3.77-8.24a21.59,21.59,0,0,0,.59-4.71,6,6,0,0,0-1.62-4.62Q895.7,123,892.07,123a9.18,9.18,0,0,0-6.92,2.6c-1.66,1.73-2.89,4.47-3.68,8.2a26.38,26.38,0,0,0-.59,5,5.68,5.68,0,0,0,1.53,4.42Q883.93,144.63,887.46,144.63Z"/><path class="cls-1" d="M936.63,158.08a67.51,67.51,0,0,1-11-.84,31.06,31.06,0,0,1-7.8-2.11l2.75-13.25a29.93,29.93,0,0,0,7.7,2.46,42.3,42.3,0,0,0,7.9.88,52.42,52.42,0,0,0,5.4-.2,2.13,2.13,0,0,0,2.16-1.66q.39-1.68-2.65-2.56t-7.66-2.55a22.41,22.41,0,0,1-7.45-4.46,8.59,8.59,0,0,1-2.56-6.43,11.82,11.82,0,0,1,.1-1.57,17,17,0,0,1,.3-1.67,16.12,16.12,0,0,1,7.5-10.75q6-3.77,18.31-3.78a62.69,62.69,0,0,1,9.18.69,42,42,0,0,1,7.21,1.57l-2.75,13a22.86,22.86,0,0,0-6-1.87,35.9,35.9,0,0,0-6.18-.59,47.79,47.79,0,0,0-5.64.3c-1.67.19-2.64.75-2.9,1.67s.59,1.8,2.36,2.25,4.12,1.18,7.06,2.16c4.06,1.25,6.92,2.73,8.59,4.47a8.77,8.77,0,0,1,2.5,6.33,11.5,11.5,0,0,1-.14,1.76c-.1.59-.22,1.25-.35,2A16.89,16.89,0,0,1,955,154.2Q949,158.08,936.63,158.08Z"/><path class="cls-1" d="M463.19,248q-10.41,0-16.73-4.56T440.13,230c0-.91.05-1.89.14-2.94a20.26,20.26,0,0,1,.55-3.14q2.34-11.09,9.71-17.72t20.41-6.62q9.63,0,14.92,4.66a15.51,15.51,0,0,1,5.3,12.22c0,.72,0,1.47-.1,2.26a16.13,16.13,0,0,1-.39,2.45l-1.77,8.15H456.62a5.76,5.76,0,0,0,2.94,5.25q2.85,1.62,10.7,1.62a47.14,47.14,0,0,0,8.19-.74,42.71,42.71,0,0,0,6.92-1.72L483,244.8Q475.55,248,463.19,248Zm-4.41-28.75h16.38l.3-1.67c.06-.33.11-.62.15-.89a6.79,6.79,0,0,0,0-.78,4.22,4.22,0,0,0-1.47-3.34q-1.47-1.28-5.1-1.27-4.81,0-7.17,2A10.09,10.09,0,0,0,458.78,219.29Z"/><path class="cls-1" d="M512.26,247.06l13.35-63.2H573.5L570.56,198H541.12l-2.26,10.3h25.81l-3,14.33H535.81l-2.15,10.31H563.1l-3,14.13Z"/><path class="cls-1" d="M566.14,247.06,576,200.54H593l-.29,3.73a36.94,36.94,0,0,1,7.51-3.39,27.61,27.61,0,0,1,8.58-1.32,14.75,14.75,0,0,1,6.87,1.28,7.16,7.16,0,0,1,3.34,3.73,35.82,35.82,0,0,1,7.85-3.64,31.2,31.2,0,0,1,9.62-1.37q6.68,0,9.76,2.94t3.1,8.44a27.23,27.23,0,0,1-.15,2.75,24.94,24.94,0,0,1-.54,3.14l-6.38,30.23H624.14L630,219a11,11,0,0,0,.3-2.26q0-3.53-4.52-3.53a10,10,0,0,0-6.87,2.75,17.34,17.34,0,0,1-.34,2.4c-.17.76-.35,1.59-.54,2.51l-5.5,26.2H595.49l6-28.36a11.33,11.33,0,0,0,.3-2.36q0-3.14-3.83-3.14a8.57,8.57,0,0,0-3.83,1,19.17,19.17,0,0,0-3.63,2.36L584,247.06Z"/><path class="cls-1" d="M646.33,268.26l14.23-67.72h16l.1,3.73a28.76,28.76,0,0,1,7-3.48,25.27,25.27,0,0,1,8.15-1.23q8.13,0,12.8,4.12t4.66,12.56a36.24,36.24,0,0,1-.88,7.56q-2.65,12.47-9.17,18.35T680.67,248q-6.85,0-11.18-2.65l-4.81,22.87Zm32.48-33.66a9.58,9.58,0,0,0,6.77-2.55q2.74-2.56,4-8.54c.13-.85.24-1.64.34-2.36a15,15,0,0,0,.15-2.06q0-3.33-1.62-4.71a7.34,7.34,0,0,0-4.86-1.38,12,12,0,0,0-7.85,2.75l-3.44,16.49Q674.4,234.6,678.81,234.6Z"/><path class="cls-1" d="M710.41,247.06l9.82-46.52H738l-.29,3.73a44.54,44.54,0,0,1,7.95-3,42.71,42.71,0,0,1,9.22-1.67L752,213.3c-1.7.13-3.59.36-5.69.69s-4.12.73-6.08,1.22a33.26,33.26,0,0,0-5,1.62l-6.38,30.23Z"/><path class="cls-1" d="M773.42,248q-10.41,0-16.73-4.56T750.36,230c0-.91,0-1.89.14-2.94a20.26,20.26,0,0,1,.55-3.14q2.34-11.09,9.71-17.72t20.41-6.62q9.63,0,14.92,4.66a15.51,15.51,0,0,1,5.3,12.22c0,.72,0,1.47-.1,2.26a16.13,16.13,0,0,1-.39,2.45l-1.77,8.15H766.85a5.76,5.76,0,0,0,2.94,5.25q2.85,1.62,10.7,1.62a47.14,47.14,0,0,0,8.19-.74,42.71,42.71,0,0,0,6.92-1.72l-2.35,11.09Q785.78,248,773.42,248ZM769,219.29h16.38l.3-1.67c.06-.33.11-.62.15-.89a6.79,6.79,0,0,0,0-.78,4.22,4.22,0,0,0-1.47-3.34q-1.47-1.28-5.1-1.27-4.81,0-7.17,2A10.09,10.09,0,0,0,769,219.29Z"/><path class="cls-1" d="M818.27,264.33c-1,0-2.45-.05-4.22-.14s-3.48-.23-5.15-.39-2.93-.32-3.78-.45L808,250.2a40.78,40.78,0,0,0,4.9.89,42.5,42.5,0,0,0,5.3.39q8.15,0,12.17-1.43c2.68-.94,4.22-2.47,4.61-4.56l.2-1.08a31.77,31.77,0,0,1-5.94,2.26,24.89,24.89,0,0,1-6.72,1q-7.86,0-13-4.17T804.43,231c0-.92.05-1.9.15-2.95a24.87,24.87,0,0,1,.54-3.24q2.55-12.36,9.47-18.79t18.3-6.43a19,19,0,0,1,7.32,1.32,14.65,14.65,0,0,1,5,3.29l1.67-3.63h16l-8.84,41.81a28.53,28.53,0,0,1-5.3,11.88q-3.82,4.91-11.18,7.5T818.27,264.33Zm11.78-30a12.23,12.23,0,0,0,7.75-2.45l3.44-16.1a8.64,8.64,0,0,0-2.65-2.11,8.11,8.11,0,0,0-3.64-.73q-4.91,0-7.26,2.79t-3.73,9a23.35,23.35,0,0,0-.59,4.72c0,1.89.53,3.18,1.57,3.87A9.61,9.61,0,0,0,830.05,234.3Z"/><path class="cls-1" d="M886.77,248q-10.69,0-16.68-4.56t-6-13.4c0-1,0-2,.15-3a24.33,24.33,0,0,1,.54-3.24q2.55-11.78,10.3-18t22-6.23q11.38,0,17.17,4.81T920,217.62c0,1,0,2-.14,3a24.45,24.45,0,0,1-.54,3.19q-2.46,11.88-10.51,18.06T886.77,248Zm2.85-13.44a9.75,9.75,0,0,0,7.12-2.55c1.73-1.71,3-4.45,3.77-8.25a21.59,21.59,0,0,0,.59-4.71,5.94,5.94,0,0,0-1.62-4.61c-1.08-1-2.83-1.48-5.25-1.48a9.14,9.14,0,0,0-6.92,2.61c-1.67,1.73-2.89,4.46-3.68,8.19a26.39,26.39,0,0,0-.59,5,5.64,5.64,0,0,0,1.53,4.41Q886.09,234.6,889.62,234.6Z"/><path class="cls-1" d="M938.79,248a68.68,68.68,0,0,1-11-.83,31.49,31.49,0,0,1-7.8-2.11l2.75-13.25a30,30,0,0,0,7.7,2.45,42.4,42.4,0,0,0,7.9.89c2.36,0,4.16-.07,5.4-.2a2.13,2.13,0,0,0,2.16-1.67c.26-1.11-.62-2-2.65-2.55s-4.58-1.44-7.66-2.55a22.42,22.42,0,0,1-7.45-4.47,8.59,8.59,0,0,1-2.56-6.43,11.93,11.93,0,0,1,.1-1.57,14.45,14.45,0,0,1,.3-1.67,16.13,16.13,0,0,1,7.5-10.74q6-3.78,18.31-3.78a62.55,62.55,0,0,1,9.17.69,41,41,0,0,1,7.22,1.57l-2.75,13a23,23,0,0,0-6-1.86,34.94,34.94,0,0,0-6.18-.59,49.94,49.94,0,0,0-5.64.29c-1.67.2-2.64.76-2.9,1.67s.59,1.8,2.35,2.26,4.13,1.18,7.07,2.16q6.09,1.86,8.59,4.46a8.8,8.8,0,0,1,2.5,6.33,11.73,11.73,0,0,1-.14,1.77c-.1.59-.22,1.24-.35,2a17,17,0,0,1-7.56,10.95Q951.16,248,938.79,248Z"/><path class="cls-1" d="M457.4,351.64a19.24,19.24,0,0,1-12.42-4q-5-4-5-12.61a32.56,32.56,0,0,1,.19-3.48q.19-1.81.6-3.78,2.73-12.77,9.81-18.7t17.66-5.93a29,29,0,0,1,6.29.68,18.13,18.13,0,0,1,5.2,2l4.51-21.3h18.45l-14,66.15h-16l-.19-3.63a28.93,28.93,0,0,1-6.88,3.38A25.62,25.62,0,0,1,457.4,351.64Zm8.15-13.35a12.47,12.47,0,0,0,7.85-2.85L476.93,319q-2.16-2.46-6.77-2.46a8.78,8.78,0,0,0-6.68,2.7q-2.55,2.7-3.82,8.69a23.18,23.18,0,0,0-.59,4.71c0,2.09.54,3.57,1.62,4.42A7.77,7.77,0,0,0,465.55,338.29Z"/><path class="cls-1" d="M521.49,351.64q-10.71,0-16.69-4.56t-6-13.4c0-1,0-2,.14-3a24.33,24.33,0,0,1,.54-3.24q2.55-11.77,10.31-18t22-6.23q11.38,0,17.18,4.8t5.79,13.25c0,1,0,2-.15,3a24.74,24.74,0,0,1-.54,3.19q-2.46,11.87-10.5,18.06T521.49,351.64Zm2.84-13.45a9.75,9.75,0,0,0,7.12-2.55q2.59-2.55,3.78-8.24a22.15,22.15,0,0,0,.58-4.71,6,6,0,0,0-1.61-4.62q-1.62-1.47-5.25-1.47a9.16,9.16,0,0,0-6.92,2.6q-2.5,2.61-3.69,8.2a26.27,26.27,0,0,0-.58,5c0,2,.5,3.5,1.52,4.42S522,338.19,524.33,338.19Z"/><path class="cls-1" d="M576.25,350.66l13.35-63.21h18.45L594.7,350.66Z"/><path class="cls-1" d="M617.47,350.66,628,301.19H610.21l2.84-13.74h54l-2.84,13.74H646.42l-10.5,49.47Z"/><path class="cls-1" d="M648.28,350.66l37.59-63.21H705.4l10.9,63.21H697.06l-2.25-13.45H675.57l-8.05,13.45ZM680.77,324H694.9l-3.14-18.55Z"/><path class="cls-1" d="M394.53,7.45A3.82,3.82,0,0,0,388,4.75L202.43,190.53,162.28,230.7h0l-16.11,16.1a3.8,3.8,0,0,1-2.7,1.12h33.72c-3.41,0,4.26-4.11,6.66-6.52l81-81A3.77,3.77,0,0,0,266,157.7l.06-21.3a3.82,3.82,0,0,0-6.52-2.71l-113,113.11a3.78,3.78,0,0,1-2.7,1.12H123a3.82,3.82,0,0,1-2.71-6.51l144.57-145a3.78,3.78,0,0,0,1.12-2.7l0-21.21a3.82,3.82,0,0,0-6.53-2.69L83,246.8a3.8,3.8,0,0,1-2.7,1.12H58.89a3.81,3.81,0,0,1-2.7-6.51l208.51-209a3.82,3.82,0,0,0,1.12-2.7l0-21.26a3.82,3.82,0,0,0-6.52-2.71L1.13,264a3.82,3.82,0,0,0,2.7,6.52H27.14l.05,0h95.73l-.15.15,32-.1.05,0H113.28A3.82,3.82,0,0,1,116,277L52.06,340.92l-.3.26a32.83,32.83,0,0,0-5.32,5.35,32.47,32.47,0,0,0-2.68,36.17,32,32,0,0,0,3.08,4.47,3.82,3.82,0,0,0,6.76-2.5v-.11c0-.63,0-1.26.06-1.88a32.31,32.31,0,0,1,6.73-18,4,4,0,0,1,.34-.38l5.11-5.11a4,4,0,0,1,.38-.34,32.39,32.39,0,0,1,19.87-6.79h18.77l0,0,27.93,0H390.6a3.82,3.82,0,0,0,3.82-3.82V333.72l-275.79.39H100a3.82,3.82,0,0,1-2.7-6.52l41.07-41.08v.18l75.77-75.83a3.82,3.82,0,0,1,2.7-1.12h85.27a3.82,3.82,0,0,1,2.7,6.52l-47.68,47.62a3.82,3.82,0,0,0,2.69,6.52l130.81.07a3.83,3.83,0,0,0,3.83-3.82V251.74a3.82,3.82,0,0,0-3.82-3.82l-76.35,0a3.82,3.82,0,0,1-2.7-6.52l50.9-50.83h.07l30.87-30.93a3.82,3.82,0,0,0,1.12-2.7V135.68A3.82,3.82,0,0,0,388,133l-37.64,37.8h0L335,186.08a3.85,3.85,0,0,1-2.7,1.11H311.05a3.82,3.82,0,0,1-2.71-6.52l85.07-85.18a3.78,3.78,0,0,0,1.12-2.7V71.56a3.83,3.83,0,0,0-6.53-2.7L271.06,186.07a3.8,3.8,0,0,1-2.7,1.12H247a3.82,3.82,0,0,1-2.7-6.52l6.22-6.22h0L393.41,31.38a3.82,3.82,0,0,0,1.12-2.7Z"/></g></g></svg>