<svg xmlns="http://www.w3.org/2000/svg" viewBox="0 0 554.07 194.32"><defs><style>.cls-1{fill:#212121;}.cls-2{fill:#eeeeef;}</style></defs><title>Ativo 2</title><g id="Camada_2" data-name="Camada 2"><g id="Layer_1" data-name="Layer 1"><rect class="cls-1" width="554.07" height="194.32"/><path class="cls-2" d="M427.55,86.72a5.67,5.67,0,0,1-3.65-1.07,3.66,3.66,0,0,1-1.33-3,7.08,7.08,0,0,1,.15-1.38A7.28,7.28,0,0,1,425,77.08a7.38,7.38,0,0,1,4.91-1.45,8.81,8.81,0,0,1,1.74.15,8.06,8.06,0,0,1,1.42.42l-.59,2.74a6.56,6.56,0,0,0-2.92-.63,3.84,3.84,0,0,0-2.41.69,3.67,3.67,0,0,0-1.21,2.23,4.15,4.15,0,0,0-.1.56,2.77,2.77,0,0,0,0,.49,1.52,1.52,0,0,0,.6,1.34,3.36,3.36,0,0,0,2,.43,8.56,8.56,0,0,0,1.59-.15,9.14,9.14,0,0,0,1.61-.47L431,86.19a13.35,13.35,0,0,1-1.6.39A11.31,11.31,0,0,1,427.55,86.72Z"/><path class="cls-2" d="M436.29,86.72a4.54,4.54,0,0,1-2.83-.78,2.67,2.67,0,0,1-1-2.28c0-.16,0-.33,0-.51s.05-.36.09-.55a5.2,5.2,0,0,1,1.76-3.07,5.86,5.86,0,0,1,3.74-1.06,4.52,4.52,0,0,1,2.92.82,2.77,2.77,0,0,1,1,2.25,4.35,4.35,0,0,1,0,.51c0,.18-.05.36-.09.55a5,5,0,0,1-1.79,3.07A6,6,0,0,1,436.29,86.72Zm.49-2.29A1.66,1.66,0,0,0,438,84a2.73,2.73,0,0,0,.64-1.4,3.57,3.57,0,0,0,.1-.81,1,1,0,0,0-.27-.78,1.33,1.33,0,0,0-.9-.25,1.55,1.55,0,0,0-1.17.44,2.77,2.77,0,0,0-.63,1.4,4.12,4.12,0,0,0-.1.85,1,1,0,0,0,.26.75A1.3,1.3,0,0,0,436.78,84.43Z"/><path class="cls-2" d="M442.19,86.55l1.67-7.91h2.9l-.05.63A6.46,6.46,0,0,1,448,78.7a4.7,4.7,0,0,1,1.46-.23,2.46,2.46,0,0,1,1.17.22,1.21,1.21,0,0,1,.57.63,6,6,0,0,1,1.33-.61,5.19,5.19,0,0,1,1.64-.24,2.35,2.35,0,0,1,1.66.5,1.92,1.92,0,0,1,.53,1.44,4.09,4.09,0,0,1,0,.47c0,.16-.05.34-.09.53l-1.09,5.14h-3.08l1-4.77a2.3,2.3,0,0,0,.05-.39c0-.4-.26-.6-.77-.6a1.73,1.73,0,0,0-1.17.47,2.52,2.52,0,0,1-.06.41c0,.13-.06.27-.09.43l-.93,4.45h-2.91l1-4.82a2.28,2.28,0,0,0,.05-.4c0-.36-.22-.54-.65-.54A1.47,1.47,0,0,0,447,81a2.86,2.86,0,0,0-.62.4l-1.1,5.19Z"/><path class="cls-2" d="M457.38,86.55l1.19-5.62h-1.15l.75-2.29h4l-1.67,7.91Zm1.65-9,.49-2.27h3.39l-.49,2.27Z"/><path class="cls-2" d="M465.08,86.72a12.1,12.1,0,0,1-1.88-.14,5.86,5.86,0,0,1-1.33-.36l.47-2.25a5.47,5.47,0,0,0,1.31.41,7.29,7.29,0,0,0,1.34.15c.41,0,.71,0,.92,0s.34-.12.37-.28-.11-.34-.45-.44-.78-.24-1.3-.43a3.84,3.84,0,0,1-1.27-.76,1.48,1.48,0,0,1-.44-1.1,2.46,2.46,0,0,1,0-.26c0-.09,0-.19.05-.29a2.75,2.75,0,0,1,1.28-1.83,6,6,0,0,1,3.11-.64,10.44,10.44,0,0,1,1.56.12,7.32,7.32,0,0,1,1.23.27l-.47,2.2a4.21,4.21,0,0,0-1-.32,6.63,6.63,0,0,0-1.05-.1,9.3,9.3,0,0,0-1,0c-.28,0-.44.13-.49.29s.1.3.4.38.7.2,1.2.37a3.34,3.34,0,0,1,1.46.76,1.46,1.46,0,0,1,.43,1.07c0,.1,0,.2,0,.31s0,.21-.06.33a2.89,2.89,0,0,1-1.29,1.86A5.84,5.84,0,0,1,465.08,86.72Z"/><path class="cls-2" d="M472.79,86.72a12.19,12.19,0,0,1-1.88-.14,5.75,5.75,0,0,1-1.32-.36l.46-2.25a5.56,5.56,0,0,0,1.32.41,7.11,7.11,0,0,0,1.34.15c.4,0,.71,0,.92,0a.37.37,0,0,0,.37-.28c0-.19-.11-.34-.46-.44s-.78-.24-1.3-.43a3.94,3.94,0,0,1-1.27-.76,1.48,1.48,0,0,1-.43-1.1,1.18,1.18,0,0,1,0-.26,1.6,1.6,0,0,1,.05-.29,2.73,2.73,0,0,1,1.27-1.83,6.11,6.11,0,0,1,3.12-.64,10.44,10.44,0,0,1,1.56.12,7.32,7.32,0,0,1,1.23.27l-.47,2.2a4.21,4.21,0,0,0-1-.32,6.86,6.86,0,0,0-1.05-.1,9,9,0,0,0-1,0c-.29,0-.45.13-.5.29s.1.3.41.38.7.2,1.2.37a3.4,3.4,0,0,1,1.46.76,1.49,1.49,0,0,1,.42,1.07,1.67,1.67,0,0,1,0,.31l-.06.33a2.89,2.89,0,0,1-1.29,1.86A5.79,5.79,0,0,1,472.79,86.72Z"/><path class="cls-2" d="M480.94,86.72a3.48,3.48,0,0,1-2.19-.63,2.35,2.35,0,0,1-.81-2c0-.19,0-.39,0-.59a5.12,5.12,0,0,1,.1-.63,6.48,6.48,0,0,1,1-2.35A4.88,4.88,0,0,1,480.76,79a4.31,4.31,0,0,1,2.12-.54,3.6,3.6,0,0,1,1.1.16,2.25,2.25,0,0,1,.73.39l.09-.38h3.14l-1.67,7.91h-2.72l0-.61a5.07,5.07,0,0,1-1.17.57A4.34,4.34,0,0,1,480.94,86.72Zm4.48-9a3,3,0,0,1-1-.17l-.93-.35a2.34,2.34,0,0,0-.91-.18,2.56,2.56,0,0,0-1,.18,3.29,3.29,0,0,0-.81.47l.42-2a2.62,2.62,0,0,1,.75-.39,3.1,3.1,0,0,1,.95-.16,2.73,2.73,0,0,1,1,.18l.9.35a2.49,2.49,0,0,0,1,.17,2.32,2.32,0,0,0,1-.19,1.91,1.91,0,0,0,.67-.47l-.42,2a1.72,1.72,0,0,1-.65.39A2.53,2.53,0,0,1,485.42,77.7Zm-3.09,6.75a1.94,1.94,0,0,0,.71-.13,1.88,1.88,0,0,0,.62-.35l.6-2.81a1.34,1.34,0,0,0-1.07-.42q-1.44,0-1.92,2.16a3.53,3.53,0,0,0-.1.71.75.75,0,0,0,.27.66A1.65,1.65,0,0,0,482.33,84.45Z"/><path class="cls-2" d="M492,86.72a4.54,4.54,0,0,1-2.83-.78,2.67,2.67,0,0,1-1-2.28c0-.16,0-.33,0-.51s0-.36.09-.55A5.2,5.2,0,0,1,490,79.53a5.86,5.86,0,0,1,3.74-1.06,4.52,4.52,0,0,1,2.92.82,2.77,2.77,0,0,1,1,2.25,4.35,4.35,0,0,1,0,.51c0,.18-.05.36-.09.55a5,5,0,0,1-1.79,3.07A6,6,0,0,1,492,86.72Zm.49-2.29a1.66,1.66,0,0,0,1.21-.43,2.73,2.73,0,0,0,.64-1.4,3.57,3.57,0,0,0,.1-.81,1,1,0,0,0-.27-.78,1.33,1.33,0,0,0-.9-.25,1.55,1.55,0,0,0-1.17.44,2.77,2.77,0,0,0-.63,1.4,4.12,4.12,0,0,0-.1.85,1,1,0,0,0,.26.75A1.3,1.3,0,0,0,492.48,84.43Z"/><path class="cls-2" d="M425.24,102a3.28,3.28,0,0,1-2.11-.68,2.6,2.6,0,0,1-.84-2.15c0-.19,0-.38,0-.59a5.27,5.27,0,0,1,.1-.64,5.5,5.5,0,0,1,1.67-3.18,4.46,4.46,0,0,1,3-1,5.32,5.32,0,0,1,1.07.11,3,3,0,0,1,.89.34l.77-3.63H433l-2.39,11.26h-2.72l0-.62a4.56,4.56,0,0,1-1.17.58A4.34,4.34,0,0,1,425.24,102Zm1.39-2.28a2.11,2.11,0,0,0,1.33-.48l.6-2.8a1.45,1.45,0,0,0-1.15-.42,1.46,1.46,0,0,0-1.13.46,3,3,0,0,0-.65,1.47,3.87,3.87,0,0,0-.11.81.93.93,0,0,0,.28.75A1.35,1.35,0,0,0,426.63,99.75Z"/><path class="cls-2" d="M436.21,102a4.76,4.76,0,0,1-2.85-.78,2.67,2.67,0,0,1-1.07-2.3c0-.15,0-.32,0-.5a4.89,4.89,0,0,1,.09-.53,5.48,5.48,0,0,1,1.66-3,5,5,0,0,1,3.47-1.12,3.72,3.72,0,0,1,2.54.79,2.64,2.64,0,0,1,.9,2.08c0,.12,0,.25,0,.38a3,3,0,0,1-.06.42l-.3,1.39h-5.5a1,1,0,0,0,.5.89,4.15,4.15,0,0,0,1.82.28,8.48,8.48,0,0,0,1.4-.13,7.12,7.12,0,0,0,1.17-.29l-.4,1.88A8.5,8.5,0,0,1,436.21,102Zm-.75-4.9h2.79l.05-.28a1,1,0,0,0,0-.15.62.62,0,0,0,0-.13.7.7,0,0,0-.25-.57,1.32,1.32,0,0,0-.87-.22,1.91,1.91,0,0,0-1.22.34A1.79,1.79,0,0,0,435.46,97.13Z"/><path class="cls-2" d="M444.56,101.86l2.27-10.75H455l-.5,2.4h-5l-.39,1.75h4.39L453,97.7h-4.39l-.37,1.75h5l-.5,2.41Z"/><path class="cls-2" d="M456.76,102a10.82,10.82,0,0,1-1.87-.15,4.86,4.86,0,0,1-1.33-.36l.47-2.25a4.92,4.92,0,0,0,1.31.42,7.11,7.11,0,0,0,1.34.15,7.23,7.23,0,0,0,.92,0,.36.36,0,0,0,.37-.28c0-.19-.11-.33-.45-.43s-.78-.25-1.31-.44a3.77,3.77,0,0,1-1.27-.76,1.45,1.45,0,0,1-.43-1.09,2.45,2.45,0,0,1,0-.27,1.51,1.51,0,0,1,.05-.28,2.73,2.73,0,0,1,1.27-1.83,6,6,0,0,1,3.12-.64,11.93,11.93,0,0,1,1.56.11,7.32,7.32,0,0,1,1.23.27l-.47,2.21a3.49,3.49,0,0,0-1-.32,5.79,5.79,0,0,0-1-.1,7,7,0,0,0-1,0c-.29,0-.45.13-.49.28s.1.31.4.39.7.2,1.2.36a3.44,3.44,0,0,1,1.46.76,1.56,1.56,0,0,1,.4,1.38q0,.15-.06.33a2.91,2.91,0,0,1-1.28,1.87A5.86,5.86,0,0,1,456.76,102Z"/><path class="cls-2" d="M464.94,102a2.68,2.68,0,0,1-1.85-.57,2,2,0,0,1-.63-1.57,3.69,3.69,0,0,1,.1-.84l.6-2.78h-1l.49-2.33h1l.35-1.62,3.29-.75-.5,2.37h1.82l-.6,2.33h-1.7l-.55,2.55a1.35,1.35,0,0,0-.05.37.44.44,0,0,0,.22.44,1.57,1.57,0,0,0,.64.11,3.64,3.64,0,0,0,1-.17l-.45,2.09A6.24,6.24,0,0,1,464.94,102Z"/><path class="cls-2" d="M471.27,102a3.48,3.48,0,0,1-2.19-.63,2.37,2.37,0,0,1-.81-2,5.78,5.78,0,0,1,0-.58c0-.2.06-.41.1-.63a6.5,6.5,0,0,1,1-2.35,5,5,0,0,1,1.69-1.53,4.44,4.44,0,0,1,2.12-.53,3.31,3.31,0,0,1,1.1.16,2.06,2.06,0,0,1,.74.39l.08-.39h3.14l-1.67,7.92h-2.72l0-.62a4.67,4.67,0,0,1-1.16.58A4.4,4.4,0,0,1,471.27,102Zm1.39-2.28a2.27,2.27,0,0,0,.72-.12,1.7,1.7,0,0,0,.61-.36l.61-2.8a1.36,1.36,0,0,0-1.07-.42c-1,0-1.61.72-1.92,2.15a3,3,0,0,0-.1.72.75.75,0,0,0,.26.65A1.67,1.67,0,0,0,472.66,99.75Zm0-6.61,2.2-3.44h2.44L475,93.14Z"/><path class="cls-2" d="M480.81,104.8l-.72,0c-.3,0-.59,0-.88-.06l-.64-.08.48-2.24a5.41,5.41,0,0,0,.84.15,6.2,6.2,0,0,0,.9.07,6.7,6.7,0,0,0,2.07-.24,1.06,1.06,0,0,0,.79-.78l0-.18a5.8,5.8,0,0,1-1,.38,4.33,4.33,0,0,1-1.15.17,3.38,3.38,0,0,1-2.2-.71,2.58,2.58,0,0,1-.87-2.13,4.46,4.46,0,0,1,0-.5,2.74,2.74,0,0,1,.09-.55,5.89,5.89,0,0,1,1.61-3.2,4.39,4.39,0,0,1,3.11-1.09,3.24,3.24,0,0,1,1.25.22,2.51,2.51,0,0,1,.86.56l.28-.62h2.72l-1.5,7.12a5,5,0,0,1-.9,2,4,4,0,0,1-1.9,1.27A10,10,0,0,1,480.81,104.8Zm2-5.11a2.08,2.08,0,0,0,1.32-.42l.58-2.74a1.55,1.55,0,0,0-.45-.36,1.38,1.38,0,0,0-.61-.12,1.56,1.56,0,0,0-1.24.47,3.55,3.55,0,0,0-.63,1.53,3.79,3.79,0,0,0-.11.8.71.71,0,0,0,.27.66A1.61,1.61,0,0,0,482.81,99.69Z"/><path class="cls-2" d="M489,101.86l1.18-5.63h-1.15l.75-2.29h4l-1.67,7.92Zm1.65-9,.49-2.27h3.38l-.48,2.27Z"/><path class="cls-2" d="M497.92,102a4.59,4.59,0,0,1-2.84-.78,2.69,2.69,0,0,1-1-2.28,4.67,4.67,0,0,1,0-.52c0-.18.05-.36.09-.55a5.16,5.16,0,0,1,1.75-3.06,5.82,5.82,0,0,1,3.74-1.06,4.49,4.49,0,0,1,2.93.82,2.77,2.77,0,0,1,1,2.25c0,.17,0,.34,0,.51a3.89,3.89,0,0,1-.1.54,4.93,4.93,0,0,1-1.78,3.07A6.06,6.06,0,0,1,497.92,102Zm.48-2.29a1.67,1.67,0,0,0,1.22-.44,2.77,2.77,0,0,0,.64-1.4,4.25,4.25,0,0,0,.1-.8,1,1,0,0,0-.28-.78,1.28,1.28,0,0,0-.89-.26,1.56,1.56,0,0,0-1.18.45,2.81,2.81,0,0,0-.62,1.39,4.27,4.27,0,0,0-.1.85,1,1,0,0,0,.25.75A1.26,1.26,0,0,0,498.4,99.74Z"/><path class="cls-2" d="M506.77,102a10.94,10.94,0,0,1-1.88-.15,5.08,5.08,0,0,1-1.33-.36l.47-2.25a5,5,0,0,0,1.31.42,7.29,7.29,0,0,0,1.35.15,7.05,7.05,0,0,0,.91,0c.22,0,.34-.11.37-.28s-.1-.33-.45-.43-.78-.25-1.3-.44a3.68,3.68,0,0,1-1.27-.76,1.45,1.45,0,0,1-.43-1.09,2.44,2.44,0,0,1,0-.27c0-.09,0-.18.05-.28a2.78,2.78,0,0,1,1.28-1.83,5.94,5.94,0,0,1,3.11-.64,12,12,0,0,1,1.57.11,7.4,7.4,0,0,1,1.22.27l-.47,2.21a3.52,3.52,0,0,0-1-.32,5.82,5.82,0,0,0-1.06-.1,7.15,7.15,0,0,0-1,0c-.28,0-.44.13-.49.28s.1.31.4.39.7.2,1.2.36a3.56,3.56,0,0,1,1.47.76,1.53,1.53,0,0,1,.42,1.08c0,.1,0,.2,0,.3s0,.21-.06.33a2.88,2.88,0,0,1-1.29,1.87A5.84,5.84,0,0,1,506.77,102Z"/><path class="cls-2" d="M426.23,117.33a4.76,4.76,0,0,1-2.85-.78,2.63,2.63,0,0,1-1.08-2.29,4.46,4.46,0,0,1,0-.5,2.54,2.54,0,0,1,.09-.54,5.5,5.5,0,0,1,1.65-3,5,5,0,0,1,3.48-1.13,3.69,3.69,0,0,1,2.53.8A2.62,2.62,0,0,1,431,112c0,.13,0,.25,0,.39a3.67,3.67,0,0,1-.07.42l-.3,1.38h-5.49a1,1,0,0,0,.5.89,4,4,0,0,0,1.82.28,7.42,7.42,0,0,0,1.39-.13,7,7,0,0,0,1.18-.29l-.4,1.89A8.56,8.56,0,0,1,426.23,117.33Zm-.75-4.89h2.78l.05-.29,0-.15s0-.08,0-.13a.76.76,0,0,0-.25-.57,1.39,1.39,0,0,0-.87-.21,1.83,1.83,0,0,0-1.22.34A1.65,1.65,0,0,0,425.48,112.44Z"/><path class="cls-2" d="M434.57,117.16l2.27-10.75H445l-.5,2.41h-5l-.38,1.75h4.39L443,113h-4.39l-.37,1.75h5l-.5,2.4Z"/><path class="cls-2" d="M443.74,117.16l1.67-7.91h2.91l-.05.63a6.13,6.13,0,0,1,1.27-.57,4.7,4.7,0,0,1,1.46-.23,2.53,2.53,0,0,1,1.17.22,1.21,1.21,0,0,1,.57.63,6,6,0,0,1,1.34-.61,5.08,5.08,0,0,1,1.63-.24,2.35,2.35,0,0,1,1.66.5,1.92,1.92,0,0,1,.53,1.44,4.09,4.09,0,0,1,0,.47,2.8,2.8,0,0,1-.09.53l-1.08,5.14h-3.09l1-4.77a2.3,2.3,0,0,0,.05-.39c0-.4-.26-.6-.77-.6a1.73,1.73,0,0,0-1.17.47,2.52,2.52,0,0,1-.06.41c0,.13-.05.27-.09.43l-.93,4.45h-2.91l1-4.82a2.28,2.28,0,0,0,.05-.4c0-.36-.22-.54-.65-.54a1.47,1.47,0,0,0-.65.17,3.65,3.65,0,0,0-.62.4l-1.1,5.19Z"/><path class="cls-2" d="M457.38,120.77l2.42-11.52h2.72l0,.63a5.08,5.08,0,0,1,1.19-.59,4.25,4.25,0,0,1,1.38-.21,3.21,3.21,0,0,1,2.18.7,2.71,2.71,0,0,1,.79,2.14,6.24,6.24,0,0,1-.15,1.29,5.68,5.68,0,0,1-1.56,3.12,4.52,4.52,0,0,1-3.14,1,3.62,3.62,0,0,1-1.91-.45l-.82,3.89Zm5.53-5.73a1.63,1.63,0,0,0,1.15-.43,2.69,2.69,0,0,0,.68-1.45,3.55,3.55,0,0,0,.06-.4,2.26,2.26,0,0,0,0-.35,1,1,0,0,0-.28-.81,1.27,1.27,0,0,0-.82-.23,2,2,0,0,0-1.34.47l-.58,2.8A1.37,1.37,0,0,0,462.91,115Z"/><path class="cls-2" d="M468.28,117.16l1.67-7.91h3l-.05.63a6.85,6.85,0,0,1,1.35-.51,7.45,7.45,0,0,1,1.57-.29l-.49,2.34a9.66,9.66,0,0,0-1,.12,8.32,8.32,0,0,0-1,.21,5.35,5.35,0,0,0-.85.27l-1.09,5.14Z"/><path class="cls-2" d="M479,117.33a4.71,4.71,0,0,1-2.84-.78,2.63,2.63,0,0,1-1.08-2.29,4.46,4.46,0,0,1,0-.5,2.54,2.54,0,0,1,.09-.54,5.44,5.44,0,0,1,1.65-3,5,5,0,0,1,3.47-1.13,3.72,3.72,0,0,1,2.54.8,2.62,2.62,0,0,1,.9,2.07c0,.13,0,.25,0,.39s0,.27-.07.42l-.3,1.38h-5.49a1,1,0,0,0,.5.89,4,4,0,0,0,1.82.28,7.42,7.42,0,0,0,1.39-.13,7.26,7.26,0,0,0,1.18-.29l-.4,1.89A8.58,8.58,0,0,1,479,117.33Zm-.75-4.89H481l0-.29,0-.15v-.13a.72.72,0,0,0-.25-.57,1.33,1.33,0,0,0-.86-.21,1.81,1.81,0,0,0-1.22.34A1.71,1.71,0,0,0,478.25,112.44Z"/><path class="cls-2" d="M486.63,120.1l-.71,0L485,120l-.64-.07.48-2.24q.31.08.84.15a8,8,0,0,0,.9.07,6.65,6.65,0,0,0,2.07-.25,1,1,0,0,0,.78-.77l0-.19a5.07,5.07,0,0,1-1,.39,4.3,4.3,0,0,1-1.15.16,3.32,3.32,0,0,1-2.2-.71,2.57,2.57,0,0,1-.87-2.12c0-.16,0-.33,0-.51a4,4,0,0,1,.1-.55,5.8,5.8,0,0,1,1.61-3.19,4.38,4.38,0,0,1,3.11-1.1,3.28,3.28,0,0,1,1.25.23,2.47,2.47,0,0,1,.86.56l.28-.62h2.72l-1.5,7.11a4.92,4.92,0,0,1-.9,2,4.08,4.08,0,0,1-1.91,1.28A10.21,10.21,0,0,1,486.63,120.1Zm2-5.11a2.14,2.14,0,0,0,1.32-.41l.58-2.74a1.28,1.28,0,0,0-.45-.36,1.42,1.42,0,0,0-.62-.13,1.51,1.51,0,0,0-1.23.48,3.67,3.67,0,0,0-.64,1.53,4.45,4.45,0,0,0-.1.8.74.74,0,0,0,.27.66A1.73,1.73,0,0,0,488.64,115Z"/><path class="cls-2" d="M498.29,117.33a4.57,4.57,0,0,1-2.84-.78,2.66,2.66,0,0,1-1-2.27,4.67,4.67,0,0,1,0-.52,2.74,2.74,0,0,1,.09-.55,5.19,5.19,0,0,1,1.75-3.07,5.88,5.88,0,0,1,3.74-1.06,4.5,4.5,0,0,1,2.92.82,2.77,2.77,0,0,1,1,2.25,4.36,4.36,0,0,1,0,.51,2.74,2.74,0,0,1-.09.55,5,5,0,0,1-1.79,3.07A6,6,0,0,1,498.29,117.33Zm.48-2.29a1.64,1.64,0,0,0,1.21-.43,2.73,2.73,0,0,0,.65-1.4,4.25,4.25,0,0,0,.1-.8,1,1,0,0,0-.28-.79,1.28,1.28,0,0,0-.89-.25,1.58,1.58,0,0,0-1.18.44,3,3,0,0,0-.63,1.4,5,5,0,0,0-.1.85,1,1,0,0,0,.26.75A1.25,1.25,0,0,0,498.77,115Z"/><path class="cls-2" d="M507.14,117.33a12.1,12.1,0,0,1-1.88-.14,5.86,5.86,0,0,1-1.33-.36l.47-2.25a5.33,5.33,0,0,0,1.31.41,7.29,7.29,0,0,0,1.34.15c.4,0,.71,0,.92,0a.36.36,0,0,0,.37-.28c0-.19-.11-.34-.45-.44s-.78-.24-1.3-.43a3.84,3.84,0,0,1-1.27-.76,1.48,1.48,0,0,1-.44-1.1,2.46,2.46,0,0,1,0-.26c0-.09,0-.19.05-.29a2.71,2.71,0,0,1,1.28-1.82,5.93,5.93,0,0,1,3.11-.65,10.44,10.44,0,0,1,1.56.12,7.32,7.32,0,0,1,1.23.27l-.47,2.2a4.21,4.21,0,0,0-1-.32,6.86,6.86,0,0,0-1.05-.1,9.3,9.3,0,0,0-1,0c-.28,0-.45.13-.49.29s.1.3.4.38.7.2,1.2.37a3.34,3.34,0,0,1,1.46.76,1.46,1.46,0,0,1,.43,1.08,1.53,1.53,0,0,1,0,.3c0,.1,0,.21-.05.33a2.89,2.89,0,0,1-1.29,1.86A5.84,5.84,0,0,1,507.14,117.33Z"/><path class="cls-2" d="M425.24,135a3.27,3.27,0,0,1-2.11-.67,2.6,2.6,0,0,1-.84-2.15c0-.19,0-.38,0-.59a5,5,0,0,1,.1-.64,5.5,5.5,0,0,1,1.67-3.18,4.46,4.46,0,0,1,3-1,5.32,5.32,0,0,1,1.07.11,3,3,0,0,1,.89.34l.77-3.63H433l-2.39,11.26h-2.72l0-.62a4.56,4.56,0,0,1-1.17.58A4.34,4.34,0,0,1,425.24,135Zm1.39-2.27a2.11,2.11,0,0,0,1.33-.48l.6-2.81a1.71,1.71,0,0,0-2.28.05,3,3,0,0,0-.65,1.47,3.87,3.87,0,0,0-.11.81.93.93,0,0,0,.28.75A1.35,1.35,0,0,0,426.63,132.68Z"/><path class="cls-2" d="M436.14,135a4.54,4.54,0,0,1-2.83-.77,2.69,2.69,0,0,1-1-2.28c0-.17,0-.34,0-.52s.05-.36.09-.55a5.14,5.14,0,0,1,1.76-3.06,5.8,5.8,0,0,1,3.74-1.06,4.52,4.52,0,0,1,2.92.81,2.77,2.77,0,0,1,1,2.26,4.35,4.35,0,0,1,0,.51q0,.26-.09.54a5,5,0,0,1-1.79,3.07A6,6,0,0,1,436.14,135Zm.49-2.28a1.66,1.66,0,0,0,1.21-.44,2.69,2.69,0,0,0,.64-1.4,3.56,3.56,0,0,0,.1-.8,1,1,0,0,0-.27-.79,1.38,1.38,0,0,0-.9-.25,1.52,1.52,0,0,0-1.17.45,2.73,2.73,0,0,0-.63,1.39,4.2,4.2,0,0,0-.1.85,1,1,0,0,0,.26.75A1.25,1.25,0,0,0,436.63,132.67Z"/><path class="cls-2" d="M445.46,134.79,447.73,124h3.14l-2.27,10.75Z"/><path class="cls-2" d="M452.47,134.79l1.79-8.42h-3l.48-2.33h9.18l-.48,2.33h-3l-1.79,8.42Z"/><path class="cls-2" d="M457.72,134.79,464.11,124h3.32l1.86,10.75H466l-.38-2.29h-3.27L461,134.79Zm5.52-4.54h2.41l-.54-3.16Z"/><path class="cls-2" d="M14.57,135H390.16a5.69,5.69,0,0,0,5.54-4.37l11.43-47.93a5.7,5.7,0,0,0-5.54-7h-387Z"/></g></g></svg>